<?xml version="1.0" encoding="UTF-8"?>
<svg id="Capa_1" xmlns="http://www.w3.org/2000/svg" version="1.1" viewBox="0 0 241.85 112.4">
  <!-- Generator: Adobe Illustrator 30.1.0, SVG Export Plug-In . SVG Version: 2.1.1 Build 136)  -->
  <defs>
    <style>
      .st0 {
        fill: #fff;
      }
    </style>
  </defs>
  <g>
    <path class="st0" d="M38.13,92.19c1.64,1.01,4.04,1.85,6.56,1.85,3.74,0,5.93-1.98,5.93-4.83,0-2.65-1.51-4.16-5.34-5.63-4.62-1.64-7.48-4.04-7.48-8.03,0-4.41,3.66-7.69,9.16-7.69,2.9,0,5,.67,6.26,1.39l-1.01,2.98c-.92-.5-2.82-1.35-5.38-1.35-3.87,0-5.34,2.31-5.34,4.25,0,2.65,1.72,3.95,5.63,5.46,4.79,1.85,7.23,4.16,7.23,8.32,0,4.37-3.24,8.15-9.92,8.15-2.73,0-5.72-.8-7.23-1.81l.92-3.07Z"/>
    <path class="st0" d="M58.26,76.3l4.46,12.02c.46,1.35.97,2.94,1.3,4.16h.08c.38-1.22.8-2.77,1.3-4.25l4.04-11.94h3.91l-5.55,14.5c-2.65,6.98-4.46,10.55-6.98,12.74-1.81,1.6-3.62,2.23-4.54,2.4l-.92-3.11c.92-.29,2.14-.88,3.24-1.81,1.01-.8,2.27-2.23,3.11-4.12.17-.38.29-.67.29-.88s-.08-.5-.25-.97l-7.52-18.75h4.04Z"/>
    <path class="st0" d="M73.98,92.86c1.09.71,3.03,1.47,4.88,1.47,2.69,0,3.95-1.35,3.95-3.03,0-1.77-1.05-2.73-3.78-3.74-3.66-1.3-5.38-3.32-5.38-5.76,0-3.28,2.65-5.97,7.02-5.97,2.06,0,3.87.59,5,1.26l-.92,2.69c-.8-.5-2.27-1.18-4.16-1.18-2.19,0-3.4,1.26-3.4,2.77,0,1.68,1.22,2.44,3.87,3.45,3.53,1.35,5.34,3.11,5.34,6.14,0,3.57-2.77,6.1-7.61,6.1-2.23,0-4.29-.55-5.72-1.39l.92-2.82Z"/>
    <path class="st0" d="M88.82,81.81c0-2.1-.04-3.83-.17-5.51h3.28l.21,3.36h.08c1.01-1.93,3.36-3.83,6.73-3.83,2.82,0,7.19,1.68,7.19,8.66v12.15h-3.7v-11.73c0-3.28-1.22-6.01-4.71-6.01-2.44,0-4.33,1.72-4.96,3.78-.17.46-.25,1.09-.25,1.72v12.23h-3.7v-14.84Z"/>
    <path class="st0" d="M112.35,87.14c.08,5,3.28,7.06,6.98,7.06,2.65,0,4.25-.46,5.63-1.05l.63,2.65c-1.3.59-3.53,1.26-6.77,1.26-6.26,0-10-4.12-10-10.26s3.61-10.97,9.54-10.97c6.64,0,8.41,5.84,8.41,9.58,0,.76-.08,1.35-.13,1.72h-14.29ZM123.19,84.5c.04-2.35-.97-6.01-5.13-6.01-3.74,0-5.38,3.45-5.67,6.01h10.8Z"/>
  </g>
  <g>
    <path class="st0" d="M179.65,33.09c0,1.4-1.14,2.53-2.53,2.53s-2.53-1.13-2.53-2.53,1.14-2.53,2.53-2.53,2.53,1.13,2.53,2.53"/>
    <path class="st0" d="M156.54,3.28c-25.17,0-45.58,20.42-45.58,45.62,0,6.05,2.43,11.92,2.43,9,0-15.37,17.13-40.78,44-40.78,18.31,0,28.35,10.64,28.35,23.94,0,5.71-2.53,9.7-6.29,11.9-.52,6.89-4.95,17.64-3.25,19.87,2.07,2.73-2.03,4.41-3.54.3-1.46-3.97-3.41-16.48-7.04-19.43-4.42-2.12-6.45-6.64-6.45-11.16,0-7.98,5.61-11.82,9.75-14.48,0-3.55-2.96-6.21-12.7-6.21-11.81,0-25.1,5.32-25.1,25.12,0,20.87,27.71,23.79,37.1,46.04,19.52-5.15,33.92-22.94,33.92-44.1,0-25.2-20.41-45.62-45.58-45.62"/>
    <path class="st0" d="M199.66,82.93c2.78,0,4.99,2.26,4.99,5.04s-2.22,5.06-5.02,5.06-5.04-2.24-5.04-5.06,2.26-5.04,5.04-5.04h.02ZM199.61,83.93c-2.11,0-3.81,1.81-3.81,4.06s1.7,4.03,3.83,4.03c2.13.02,3.85-1.77,3.85-4.03s-1.72-4.06-3.85-4.06h-.02ZM198.76,90.9h-1.19v-5.6c.45-.07.94-.16,1.79-.16.96,0,1.55.16,1.92.45.31.25.49.63.49,1.21,0,.67-.47,1.14-1.07,1.3v.04c.49.09.81.54.9,1.37.11.87.22,1.21.31,1.39h-1.23c-.13-.2-.22-.69-.33-1.46-.09-.6-.45-.85-1.05-.85h-.54v2.31ZM198.76,87.68h.56c.69,0,1.23-.22,1.23-.81,0-.47-.34-.83-1.14-.83-.29,0-.49,0-.65.02v1.61Z"/>
  </g>
</svg>