<?xml version="1.0" encoding="UTF-8"?>
<svg id="Capa_2" data-name="Capa 2" xmlns="http://www.w3.org/2000/svg" viewBox="0 0 1073.37 887.69">
  <defs>
    <style>
      .cls-1 {
        fill: #c4c4c4;
      }

      .cls-1, .cls-2 {
        stroke: #3a698a;
        stroke-dasharray: 3 4;
        stroke-linecap: round;
        stroke-linejoin: round;
        stroke-width: 2px;
      }

      .cls-2 {
        fill: none;
      }
    </style>
  </defs>
  <g id="Capa_1-2" data-name="Capa 1">
    <path class="cls-2" d="M469.38,248.88c-4.67,3.9-9.35,7.79-14.02,11.69-4.04,3.84-8.77,9.2-12.85,16.36-9.36,16.41-9.73,32.46-9.35,40.32,4.09,7.4,8.18,14.8,12.27,22.2,1.99,2.03,10.13,10.82,10.52,24.54.31,11.02-4.56,18.9-6.43,21.62-2.53,3.9-5.06,7.79-7.6,11.69.23,3.42,1.18,10.39,5.84,17.53,3.56,5.45,7.82,8.75,10.52,10.52,1.55-1.03,3.81-2.6,6.43-4.67,10.49-8.32,11.98-13.11,17.53-14.02,5.44-.89,10.32,2.67,12.27,4.09,5.1,3.72,5.55,7.74,12.27,14.02,2.37,2.22,4.51,3.77,5.84,4.67,2.73-1.56,5.45-3.12,8.18-4.67,3.28,1.47,8.3,4.25,12.85,9.35,2.4,2.69,4.09,5.36,5.26,7.6,4.57,1.46,6.28.8,7.01,0,2.19-2.38-2.94-7.44-1.75-15.19.14-.93,1.05-6.29,5.26-9.93,3.94-3.42,7.34-2.35,8.76-4.67,1.26-2.06.77-6.45-8.18-16.94-4.93-3.59-7.79-7.44-9.35-9.93-2.29-3.66-7.43-11.86-4.09-18.11,1.36-2.55,3.68-3.94,5.26-4.67,5.45-1.36,10.91-2.73,16.36-4.09-.14-3.31-.67-7.8-2.34-12.85-1.99-6.02-4.83-10.52-7.01-13.44,4.34,1.11,6.77.31,8.18-.58,2.29-1.45,2.74-3.7,5.26-8.18,1.78-3.16,3.53-5.55,4.67-7.01,4.05.93,8.14,1.91,12.27,2.92,2.35.58,4.69,1.16,7.01,1.75,2.34-1.36,7.28-2.64,9.62-4.01"/>
    <line class="cls-1" x1="72.88" y1="200.99" x2="113.06" y2="208.85"/>
    <polyline class="cls-2" points="283.32 113.18 288.92 123.08 285.04 131.7 285.91 155.39 285.91 175.2 283.32 191.56 274.28 204.49 271.69 218.7 274.28 237.22 276 248.42 264.8 246.69 255.33 240.66 251.02 246.69 257.48 259.62 265.66 275.98 268.25 289.33 265.23 304.41 232.93 321.64"/>
    <polyline class="cls-2" points="265.54 301.83 272.99 307.09 278.68 316.29 278.68 334.26 282.63 342.15 295.77 347.41 304.1 353.11 304.98 364.94 315.06 367.57 325.13 362.75 329.95 348.29 337.4 339.96 347.05 334.26 349.68 323.31 354.06 319.8 363.7 324.18 373.34 325.5 376.85 336.02 380.35 346.97 386.92 346.97 401.82 341.71 408.4 347.41 415.85 349.6 420.23 339.52 425.05 336.02 443.46 339.52"/>
    <polyline class="cls-2" points="306.69 365.73 305.12 375.18 301.97 384.23 311.41 403.52 321.25 416.9 340.54 425.16 342.11 438.94 344.08 458.62 351.95 471.21 359.83 477.51"/>
    <polyline class="cls-2" points="337 501.52 342.9 501.91 348.81 495.22 347.23 485.78 363.76 474.76 372.42 484.99 377.14 494.04 374.78 498.76 387.77 503.09 392.89 510.18 398.4 499.94 397.22 483.41 405.88 472.79 412.57 462.16 422.01 446.81 428.7 439.73 437.76 433.82 461.37 430.28 472.39 429.1 470.42 418.87"/>
    <path class="cls-2" d="M336.61,580.87l6.69-3.78,19.68-9.84,11.41.39,7.87,6.69,5.12,2.76,6.69-10.23.39-7.48-5.9-8.27v-8.66l.39-11.02-4.72-11.02,5.51-4.33,9.84-.39,3.94-7.08,1.18-9.05,6.3,2.76-2.36,15.35,6.69-3.94,5.9-1.57-3.15,13.78,5.12.79,9.05-9.05,7.87,7.48-.79,7.87-12.59,9.05-3.94,7.87s-5.51,7.08-7.48,7.08-7.48,5.51-7.48,5.51l5.9,7.48,11.81,7.48,5.9-2.36,9.05-5.9s1.97-4.33,1.97-6.69.39-14.96.39-14.96l3.15-9.05,7.87,3.15s1.57,6.3,2.36,7.87c.79,1.57,7.08,6.69,7.08,6.69l7.48.79,10.63-2.36,3.15-12.59,6.3-2.76s4.33,1.18,4.72,2.36c.39,1.18,1.18,14.96,1.18,14.96l-5.12,13.38-11.41,11.02-6.69,8.66-2.36,15.35-3.54,3.54-19.68,4.72-19.68,6.3,6.3,7.87,4.72,3.94,5.12,14.17-8.27,7.48-18.5,7.48-10.63,5.51-11.81,11.41"/>
    <path class="cls-2" d="M357.46,643.6l11.41-11.02,11.81-5.12,7.87,2.36,7.87,8.27,11.02-6.3s5.51-1.97,6.69-.79,4.33,6.69,4.33,6.69l-3.54,7.87,3.15,10.23"/>
    <path class="cls-2" d="M455.68,539.83l1.4-5.59-5.03-5.86,5.03-3.91,6.98-5.31s4.75-4.47,6.42-3.07,10.89,13.13,10.89,13.13l6.14,10.05"/>
    <polyline class="cls-2" points="536.96 438.67 531.09 443.48 523.55 449.9 518.52 458.84 508.47 468.06 499.81 472.25 481.65 476.43 473 482.02 473.56 495.15 478.86 512.74 483.33 518.61 493.38 524.19 502.6 526.98 500.37 538.43 496.74 543.18"/>
    <path class="cls-2" d="M498.23,552.19l20.24,7.52,8.67,8.1,8.67-4.34,10.99-1.16,15.9,7.23s5.49,7.52,4.63,7.52-6.36,6.07-7.81,6.07-13.59,6.07-13.59,6.07l-1.45,4.92h-10.7s-4.05,4.92-4.92,7.23-.58,11.28-.29,12.14,2.89,6.07,3.76,7.52c.87,1.45,3.18,5.49,3.18,5.49l-7.23,2.31-5.3,1.22s-7.14-7.01-8.58-7.01h-10.12c-1.16,0-9.54,2.89-9.54,2.89l-.58-13.88s-9.83-4.34-11.56-4.05-6.65,5.49-6.65,5.49l-5.49-4.92-.58-1.16"/>
    <path class="cls-2" d="M456.88,714.97l-.29-6.94,3.76-5.2h8.1l.29-6.65-4.92-7.52,9.83,3.18,8.1,5.2s6.65.87,7.52.87,6.65-2.89,6.65-2.89l7.23,4.34,8.96,3.47s3.18-3.76,2.89-5.2-.87-13.59-.87-13.59c0,0,4.34-.58,5.78-.58s3.47,1.16,3.18,4.34,0,14.46,0,14.46l3.47,2.6,15.61-8.67,6.36-5.2,11.28-3.47s3.76-.58,5.78,0-4.05,6.65-4.05,6.65l-2.31,3.47s3.18,5.2,4.63,6.36,2.31,1.45,6.94,4.05c4.63,2.6,14.17,6.07,14.17,6.07,0,0,9.54,5.78,10.7,6.65,1.16.87,11.85,6.07,11.85,6.07l4.34,3.76s-1.16,11.85-1.16,12.72,1.16,8.1,1.45,10.99,4.05,14.17,4.05,15.9.87,7.81.29,8.96c-.58,1.16.29,1.45-1.45,3.18s-5.49,11.56-5.49,11.56l-5.2,9.54"/>
    <path class="cls-2" d="M535.24,625.34l5.2,4.63,4.63,10.12,4.63,1.16,5.78-11.85,2.02-8.38,6.36-6.65s4.92-.87,5.2-2.02.29-9.25.29-9.25h5.49l4.92-6.65-2.6-6.07,8.67-1.73,2.6-5.2,6.07-2.02,8.67,5.78s4.63-.87,6.07-.87,5.2.87,8.38,3.76,12.43,12.72,12.43,12.72c0,0-.29,2.02-3.76,2.31s-17.64,2.89-17.64,2.89l1.45,12.72,4.05.87-5.78,7.23h-10.99l-4.92,9.25-5.49,8.38,8.67,4.63,8.38,8.67-5.2,10.41,1.45,16.48-4.05-.58-7.52-10.99-3.18,8.96-10.41,3.76-8.38-.58"/>
    <path class="cls-2" d="M558.08,626.21l4.92,15.61,5.2,7.52s6.07-2.89,6.36-4.34c.29-1.45,4.63-9.54,6.36-9.54s6.07,1.45,6.07,1.45l-3.47,8.67,5.49,2.6"/>
    <path class="cls-2" d="M547.67,641.53v11.85s-10.12,10.41-10.99,11.56-5.2,12.14-5.2,12.14l-8.96,9.25"/>
    <path class="cls-2" d="M567.87,574.78l5.82-6.79s1.55,1.55,2.13,1.94,9.32,3.3,10.87,3.3h8.54l6.99,4.66,3.88,7.76"/>
    <path class="cls-2" d="M642.2,543.54l-10.87-3.49s-8.54,1.55-9.12,2.13c-.58.58-5.63-.19-5.63-.19l-2.33,10.09-5.43,15.53-4.08,12.81"/>
    <path class="cls-2" d="M546.52,445.14l4.66,14.17s.97,7.57.97,8.35.78,11.45.78,11.45l-4.85,8.15s-2.13,8.93-1.94,9.51,1.55,2.91,3.88,3.11,17.08-1.36,17.08-1.36l.19,9.51-2.72,15.53,8.35.58,10.87-.39,9.32,8.15,14.17,4.85,7.76,4.46"/>
    <path class="cls-2" d="M558.36,497.54l7.18-5.63-1.55-10.48,1.55-4.27h14.17l6.21-1.94-4.46-15.33-.78-7.96,5.63-7.76,7.96-6.6,3.3-8.35s12.81-4.46,13.59-4.46,11.65-2.72,11.65-2.72c0,0,3.3-8.54,3.3-9.7s1.94-14.17,1.94-14.17l-3.88-6.6-12.81-5.24-8.73-8.93-.97-9.32-8.15-8.93s-7.18-9.7-7.18-10.48.97-28.53.97-28.53"/>
    <path class="cls-2" d="M615.37,624.55l5.71-5.12,5.71,1.77.79,6.3-2.16,8.86-.79,9.84-4.72,1.97,2.76,4.13s-1.77,1.97-3.35,3.54c-1.57,1.57-7.28,8.07-7.28,8.07l-7.48-.98"/>
    <path class="cls-2" d="M630.52,621.21l3.74-7.28,12.79,6.69,6.1,5.71s-8.27,2.36-9.45,2.76-4.92,6.89-4.92,6.89l-.59,8.27s6.69-2.56,7.67-2.76,7.87-5.12,7.87-5.12c0,0,3.54,7.67,2.95,7.67s-4.13,11.41-4.13,11.41c0,0-4.72,5.51-4.72,6.3s5.9,9.84,6.69,10.43,11.22,9.05,11.22,9.05l-4.13,4.92-7.08,7.08v6.89c0,3.35,7.87,6.49,7.87,6.49,0,0,9.64-2.16,9.64-1.38s-1.38,16.33-1.38,16.33l-10.23,8.86-9.84,5.9-21.06-6.1-16.14,1.18"/>
    <polyline class="cls-2" points="589.39 715.67 600.22 714.88 607.3 713.5 605.53 697.76 603.17 689.69 598.84 687.92"/>
    <polyline class="cls-2" points="601.59 671 611.83 673.36 610.25 681.03 612.61 687.72 628.36 686.35 635.05 680.44 637.21 670.21 633.87 662.93 623.44 652.5"/>
    <path class="cls-2" d="M675.98,708.39l7.28,6.89,1.97,5.71,6.3,6.69,10.43.59,6.69,6.69-3.54,8.46-.2,8.07s4.92,4.13,5.51,4.13,16.53-4.53,16.53-4.53l6.1,8.86,5.9,15.94s17.12-.59,17.71-.98,16.53-2.36,16.53-2.36l11.37,2.7-5.66,14.61-10.04,12.4.98,11.22,1.52,7.02"/>
    <path class="cls-2" d="M890.09,779.43s-8.07-4.92-8.86-5.71c-.79-.79-12.59-17.12-12.59-17.12l-10.63-4.72-14.96,14.37-15.74,3.94-5.51-13.58-9.25-8.27s-4.72-.79-5.51-.59-2.95,17.32-3.94,17.71-9.64,6.49-9.64,6.49l-9.64,3.15"/>
    <path class="cls-2" d="M798.58,768.21l-8.07-7.28-14.96-11.02s2.36-3.15,2.76-3.94-2.36-5.9-2.36-5.9l-.61-7.95"/>
    <path class="cls-2" d="M845.81,718.42l5.71,11.02,10.63,10.04,8.46,8.07,15.35-4.72s8.07-.59,8.66-.59,10.82,14.76,10.82,14.76"/>
    <polyline class="cls-2" points="864.71 717.83 867.86 730.62 884.39 732.59 890.88 729.64 883.6 713.5"/>
    <polyline class="cls-2" points="926.7 630.65 929.45 642.66 941.65 656.24 956.02 674.74 960.15 684.97 957.2 725.31 959.17 754.44"/>
    <path class="cls-2" d="M1035.72,607.63l5.71,16.14-2.56,8.66s-19.09,14.17-20.47,14.56-33.46,15.74-33.46,15.74l-19.48,14.76-5.71,4.33"/>
    <polygon class="cls-2" points="1 1 78.45 24.83 85.4 24.83 202.56 97.31 303.84 117.17 307.81 102.28 377.32 111.21 423.99 168.8 422 186.68 431.93 217.46 441.86 227.39 449.8 229.37 469.66 246.25 487.53 235.33 486.54 220.44 498.46 211.5 517.32 207.53 533.21 221.43 540.16 213.49 566.97 247.25 573.92 267.1 576.9 292.92 592.78 304.84 599.73 329.66 612.64 363.42 620.59 377.32 644.42 388.24 661.3 397.18 679.17 396.18 688.11 391.22 678.18 412.07 662.29 422 652.36 488.53 642.43 537.18 644.42 550.09 644.42 562 657.32 583.85 651.37 595.76 710.94 706.97 744.7 714.91 756.62 735.77 775.48 731.79 802.29 726.83 821.16 727.82 850.95 714.91 862.86 714.91 871.8 722.86 882.72 712.93 901.58 697.04 922.44 664.27 926.41 627.54 944.28 613.64 979.03 609.66 1012.79 599.73 1049.53 609.66 1056.48 599.73 1072.37 607.68 1072.37 629.52 1047.54 657.32 1041.59 672.22 1031.66 681.15 1047.54 688.11 1028.68 737.75 1022.72 721.86 1002.86 731.79 985.98 748.67 960.17 752.65 903.57 756.62 889.67 778.46 916.48 809.24 917.47 832.08 868.82 828.11 843.99 853.92 848.96 869.81 842.01 886.69 771.51 820.16 752.65 819.17 733.78 809.24 681.15 835.06 659.31 828.11 641.44 818.18 612.64 810.24 588.81 789.38 550.09 778.46 532.22 762.57 459.73 716.9 431.93 708.96 397.18 681.15 358.45 649.38 332.64 596.76 336.61 580.87 334.62 568.95 354.48 552.07 338.59 537.18 343.56 525.27 351.5 517.32 335.62 499.45 326.68 481.58 302.85 434.91 290.93 425.97 282.99 404.13 273.06 408.1 266.11 381.29 239.3 353.49 221.43 337.6 234.34 316.75 232.35 307.81 217.46 294.91 214.48 283.98 192.63 273.06 190.65 258.17 195.61 243.27 182.71 237.32 162.85 225.4 144.97 185.68 134.05 136.04 133.06 92.35 119.16 84.41 112.21 70.5 98.31 74.48 74.48 55.61 65.54 58.59 65.54 108.24 79.44 157.88 107.24 187.67 99.3 196.61 113.2 208.52 116.18 225.4 118.17 247.25 127.1 255.19 136.04 274.05 135.04 289.94 145.97 279.02 152.92 290.93 149.94 321.72 158.88 336.61 175.76 357.46 165.83 375.33 168.8 390.23 172.78 403.14 184.69 393.21 207.53 446.82 176.75 460.72 172.78 435.9 168.8 421.01 139.02 390.23 116.18 364.41 113.2 334.62 122.14 306.82 107.24 290.93 95.33 275.05 73.48 270.08 43.7 232.35 30.79 221.43 53.63 218.45 73.48 235.33 66.53 216.46 72.49 191.64 57.6 164.83 27.81 137.03 25.82 119.16 21.85 103.27 23.84 87.38 13.91 74.48 9.94 51.64 13.91 32.77 15.89 22.84 1 1"/>
    <polyline class="cls-2" points="74.34 55.94 69.5 44.53 68.53 35.84 78.31 25.16"/>
    <polyline class="cls-2" points="567.71 687.35 567.84 665.5 576.91 663.63 579.98 657.5 584.12 657.5 587.96 663.94 589.18 674.83"/>
  </g>
</svg>