<?xml version="1.0" encoding="UTF-8"?>
<svg id="Capa_2" data-name="Capa 2" xmlns="http://www.w3.org/2000/svg" viewBox="0 0 1085.04 887.69">
  <defs>
    <style>
      .cls-1 {
        fill: #004b73;
      }

      .cls-2, .cls-3 {
        fill: #c4c4c4;
      }

      .cls-2, .cls-4 {
        stroke: #3a698a;
        stroke-dasharray: 3 4;
        stroke-linecap: round;
        stroke-linejoin: round;
        stroke-width: 2px;
      }

      .cls-4 {
        fill: none;
      }
    </style>
  </defs>
  <g id="Capa_1-2" data-name="Capa 1">
    <polygon class="cls-1" points="0 1.39 77.45 25.22 84.4 25.22 201.56 97.7 302.84 117.56 306.81 102.67 376.32 111.6 422.99 169.19 421 187.06 430.93 217.84 440.86 227.77 448.8 229.76 468.66 246.64 486.53 235.72 485.54 220.82 497.46 211.89 516.32 207.92 532.21 221.82 539.16 213.87 565.97 247.63 572.92 267.49 575.9 293.31 591.78 305.22 598.73 330.05 611.64 363.81 619.59 377.71 643.42 388.63 660.3 397.56 678.17 396.57 687.11 391.61 677.18 412.46 661.29 422.39 651.36 488.91 641.43 537.57 643.42 550.48 643.42 562.39 656.32 584.23 650.37 596.15 709.94 707.36 743.7 715.3 755.62 736.15 774.48 732.18 801.29 727.22 820.16 728.21 849.95 715.3 861.86 715.3 870.8 723.24 881.72 713.32 900.58 697.43 921.44 664.66 925.41 627.92 943.28 614.02 978.03 610.05 1011.79 600.12 1048.53 610.05 1055.48 600.12 1071.37 608.07 1071.37 629.91 1046.54 657.71 1040.59 672.61 1030.66 681.54 1046.54 688.49 1027.68 738.14 1021.72 722.25 1001.86 732.18 984.98 749.06 959.17 753.03 902.57 757 888.67 778.85 915.48 809.63 916.47 832.47 867.82 828.49 842.99 854.31 847.96 870.2 841.01 887.08 770.51 820.55 751.65 819.56 732.78 809.63 680.15 835.45 658.31 828.49 640.44 818.57 611.64 810.62 587.81 789.77 549.09 778.85 531.22 762.96 458.73 717.29 430.93 709.34 396.18 681.54 357.45 649.77 331.64 597.14 335.61 581.26 333.62 569.34 353.48 552.46 337.59 537.57 342.56 525.65 350.5 517.71 334.62 499.84 325.68 481.96 301.85 435.3 289.93 426.36 281.99 404.52 272.06 408.49 265.11 381.68 238.3 353.88 220.43 337.99 233.34 317.14 231.35 308.2 216.46 295.29 213.48 284.37 191.63 273.45 189.65 258.55 194.61 243.66 181.71 237.7 161.85 225.79 143.97 186.07 133.05 136.42 132.06 92.74 118.16 84.79 111.21 70.89 97.31 74.86 73.48 56 64.54 58.98 64.54 108.62 78.44 158.27 106.24 188.06 98.3 196.99 112.2 208.91 115.18 225.79 117.17 247.63 126.1 255.58 135.04 274.44 134.04 290.33 144.97 279.41 151.92 291.32 148.94 322.1 157.88 337 174.76 357.85 164.83 375.72 167.8 390.61 171.78 403.52 183.69 393.59 206.53 447.21 175.75 461.11 171.78 436.29 167.8 421.39 138.02 390.61 115.18 364.8 112.2 335.01 121.14 307.21 106.24 291.32 94.33 275.43 72.48 270.47 42.7 232.74 29.79 221.82 52.63 218.84 72.48 235.72 65.53 216.85 71.49 192.03 56.6 165.22 26.81 137.42 24.82 119.55 20.85 103.66 22.84 87.77 12.91 74.86 8.94 52.03 12.91 33.16 14.89 23.23 0 1.39"/>
    <polygon class="cls-3" points="12 1.39 89.45 25.22 96.4 25.22 213.57 97.7 314.84 117.56 318.82 102.67 388.32 111.6 434.99 169.19 433 187.06 442.93 217.84 452.86 227.77 460.8 229.76 480.66 246.64 498.54 235.72 497.54 220.82 509.46 211.89 528.32 207.92 544.21 221.82 551.16 213.87 577.97 247.63 584.92 267.49 587.9 293.31 603.79 305.22 610.74 330.05 623.64 363.81 631.59 377.71 655.42 388.63 672.3 397.56 690.17 396.57 699.11 391.61 689.18 412.46 673.29 422.39 663.36 488.91 653.43 537.57 655.42 550.48 655.42 562.39 668.33 584.23 662.37 596.15 721.94 707.36 755.7 715.3 767.62 736.15 786.48 732.18 813.29 727.22 832.16 728.21 861.95 715.3 873.86 715.3 882.8 723.24 893.72 713.32 912.59 697.43 933.44 664.66 937.41 627.92 955.28 614.02 990.03 610.05 1023.79 600.12 1060.53 610.05 1067.48 600.12 1083.37 608.07 1083.37 629.91 1058.55 657.71 1052.59 672.61 1042.66 681.54 1058.55 688.49 1039.68 738.14 1033.72 722.25 1013.86 732.18 996.98 749.06 971.17 753.03 914.57 757 900.67 778.85 927.48 809.63 928.47 832.47 879.82 828.49 855 854.31 859.96 870.2 853.01 887.08 782.51 820.55 763.65 819.56 744.78 809.63 692.16 835.45 670.31 828.49 652.44 818.57 623.64 810.62 599.81 789.77 561.09 778.85 543.22 762.96 470.73 717.29 442.93 709.34 408.18 681.54 369.46 649.77 343.64 597.14 347.61 581.26 345.63 569.34 365.48 552.46 349.6 537.57 354.56 525.65 362.5 517.71 346.62 499.84 337.68 481.96 313.85 435.3 301.94 426.36 293.99 404.52 284.06 408.49 277.11 381.68 250.3 353.88 232.43 337.99 245.34 317.14 243.35 308.2 228.46 295.29 225.48 284.37 203.64 273.45 201.65 258.55 206.62 243.66 193.71 237.7 173.85 225.79 155.98 186.07 145.05 136.42 144.06 92.74 130.16 84.79 123.21 70.89 109.31 74.86 85.48 56 76.54 58.98 76.54 108.62 90.44 158.27 118.24 188.06 110.3 196.99 124.2 208.91 127.18 225.79 129.17 247.63 138.1 255.58 147.04 274.44 146.05 290.33 156.97 279.41 163.92 291.32 160.94 322.1 169.88 337 186.76 357.85 176.83 375.72 179.81 390.61 183.78 403.52 195.69 393.59 218.53 447.21 187.75 461.11 183.78 436.29 179.81 421.39 150.02 390.61 127.18 364.8 124.2 335.01 133.14 307.21 118.24 291.32 106.33 275.43 84.49 270.47 54.7 232.74 41.79 221.82 64.63 218.84 84.49 235.72 77.53 216.85 83.49 192.03 68.6 165.22 38.81 137.42 36.82 119.55 32.85 103.66 34.84 87.77 24.91 74.86 20.94 52.03 24.91 33.16 26.9 23.23 12 1.39"/>
    <path class="cls-4" d="M481.05,248.88c-4.67,3.9-9.35,7.79-14.02,11.69-4.04,3.84-8.77,9.2-12.85,16.36-9.36,16.41-9.73,32.46-9.35,40.32,4.09,7.4,8.18,14.8,12.27,22.2,1.99,2.03,10.13,10.82,10.52,24.54.31,11.02-4.56,18.9-6.43,21.62-2.53,3.9-5.06,7.79-7.6,11.69.23,3.42,1.18,10.39,5.84,17.53,3.56,5.45,7.82,8.75,10.52,10.52,1.55-1.03,3.81-2.6,6.43-4.67,10.49-8.32,11.98-13.11,17.53-14.02,5.44-.89,10.32,2.67,12.27,4.09,5.1,3.72,5.55,7.74,12.27,14.02,2.37,2.22,4.51,3.77,5.84,4.67,2.73-1.56,5.45-3.12,8.18-4.67,3.28,1.47,8.3,4.25,12.85,9.35,2.4,2.69,4.09,5.36,5.26,7.6,4.57,1.46,6.28.8,7.01,0,2.19-2.38-2.94-7.44-1.75-15.19.14-.93,1.05-6.29,5.26-9.93,3.94-3.42,7.34-2.35,8.76-4.67,1.26-2.06.77-6.45-8.18-16.94-4.93-3.59-7.79-7.44-9.35-9.93-2.29-3.66-7.43-11.86-4.09-18.11,1.36-2.55,3.68-3.94,5.26-4.67,5.45-1.36,10.91-2.73,16.36-4.09-.14-3.31-.67-7.8-2.34-12.85-1.99-6.02-4.83-10.52-7.01-13.44,4.34,1.11,6.77.31,8.18-.58,2.29-1.45,2.74-3.7,5.26-8.18,1.78-3.16,3.53-5.55,4.67-7.01,4.05.93,8.14,1.91,12.27,2.92,2.35.58,4.69,1.16,7.01,1.75,2.34-1.36,7.28-2.64,9.62-4.01"/>
    <line class="cls-2" x1="84.55" y1="200.99" x2="124.74" y2="208.85"/>
    <polyline class="cls-4" points="294.99 113.18 300.59 123.08 296.72 131.7 297.58 155.39 297.58 175.2 294.99 191.56 285.95 204.49 283.37 218.7 285.95 237.22 287.67 248.42 276.47 246.69 267 240.66 262.69 246.69 269.15 259.62 277.34 275.98 279.92 289.33 276.91 304.41 244.6 321.64"/>
    <polyline class="cls-4" points="277.21 301.83 284.66 307.09 290.36 316.29 290.36 334.26 294.3 342.15 307.45 347.41 315.77 353.11 316.65 364.94 326.73 367.57 336.81 362.75 341.63 348.29 349.08 339.96 358.72 334.26 361.35 323.31 365.73 319.8 375.37 324.18 385.01 325.5 388.52 336.02 392.03 346.97 398.6 346.97 413.5 341.71 420.07 347.41 427.52 349.6 431.9 339.52 436.72 336.02 455.13 339.52"/>
    <polyline class="cls-4" points="318.37 365.73 316.79 375.18 313.64 384.23 323.09 403.52 332.93 416.9 352.21 425.16 353.79 438.94 355.76 458.62 363.63 471.21 371.5 477.51"/>
    <polyline class="cls-4" points="348.67 501.52 354.58 501.91 360.48 495.22 358.91 485.78 375.44 474.76 384.09 484.99 388.82 494.04 386.46 498.76 399.44 503.09 404.56 510.18 410.07 499.94 408.89 483.41 417.55 472.79 424.24 462.16 433.69 446.81 440.38 439.73 449.43 433.82 473.05 430.28 484.07 429.1 482.1 418.87"/>
    <path class="cls-4" d="M348.28,580.87l6.69-3.78,19.68-9.84,11.41.39,7.87,6.69,5.12,2.76,6.69-10.23.39-7.48-5.9-8.27v-8.66l.39-11.02-4.72-11.02,5.51-4.33,9.84-.39,3.94-7.08,1.18-9.05,6.3,2.76-2.36,15.35,6.69-3.94,5.9-1.57-3.15,13.78,5.12.79,9.05-9.05,7.87,7.48-.79,7.87-12.59,9.05-3.94,7.87s-5.51,7.08-7.48,7.08-7.48,5.51-7.48,5.51l5.9,7.48,11.81,7.48,5.9-2.36,9.05-5.9s1.97-4.33,1.97-6.69.39-14.96.39-14.96l3.15-9.05,7.87,3.15s1.57,6.3,2.36,7.87c.79,1.57,7.08,6.69,7.08,6.69l7.48.79,10.63-2.36,3.15-12.59,6.3-2.76s4.33,1.18,4.72,2.36c.39,1.18,1.18,14.96,1.18,14.96l-5.12,13.38-11.41,11.02-6.69,8.66-2.36,15.35-3.54,3.54-19.68,4.72-19.68,6.3,6.3,7.87,4.72,3.94,5.12,14.17-8.27,7.48-18.5,7.48-10.63,5.51-11.81,11.41"/>
    <path class="cls-4" d="M369.14,643.6l11.41-11.02,11.81-5.12,7.87,2.36,7.87,8.27,11.02-6.3s5.51-1.97,6.69-.79,4.33,6.69,4.33,6.69l-3.54,7.87,3.15,10.23"/>
    <path class="cls-4" d="M467.36,539.83l1.4-5.59-5.03-5.86,5.03-3.91,6.98-5.31s4.75-4.47,6.42-3.07,10.89,13.13,10.89,13.13l6.14,10.05"/>
    <polyline class="cls-4" points="548.63 438.67 542.76 443.48 535.22 449.9 530.19 458.84 520.14 468.06 511.48 472.25 493.33 476.43 484.67 482.02 485.23 495.15 490.54 512.74 495 518.61 505.06 524.19 514.27 526.98 512.04 538.43 508.41 543.18"/>
    <path class="cls-4" d="M509.9,552.19l20.24,7.52,8.67,8.1,8.67-4.34,10.99-1.16,15.9,7.23s5.49,7.52,4.63,7.52-6.36,6.07-7.81,6.07-13.59,6.07-13.59,6.07l-1.45,4.92h-10.7s-4.05,4.92-4.92,7.23-.58,11.28-.29,12.14,2.89,6.07,3.76,7.52c.87,1.45,3.18,5.49,3.18,5.49l-7.23,2.31-5.3,1.22s-7.14-7.01-8.58-7.01h-10.12c-1.16,0-9.54,2.89-9.54,2.89l-.58-13.88s-9.83-4.34-11.56-4.05-6.65,5.49-6.65,5.49l-5.49-4.92-.58-1.16"/>
    <path class="cls-4" d="M468.56,714.97l-.29-6.94,3.76-5.2h8.1l.29-6.65-4.92-7.52,9.83,3.18,8.1,5.2s6.65.87,7.52.87,6.65-2.89,6.65-2.89l7.23,4.34,8.96,3.47s3.18-3.76,2.89-5.2-.87-13.59-.87-13.59c0,0,4.34-.58,5.78-.58s3.47,1.16,3.18,4.34,0,14.46,0,14.46l3.47,2.6,15.61-8.67,6.36-5.2,11.28-3.47s3.76-.58,5.78,0-4.05,6.65-4.05,6.65l-2.31,3.47s3.18,5.2,4.63,6.36,2.31,1.45,6.94,4.05c4.63,2.6,14.17,6.07,14.17,6.07,0,0,9.54,5.78,10.7,6.65,1.16.87,11.85,6.07,11.85,6.07l4.34,3.76s-1.16,11.85-1.16,12.72,1.16,8.1,1.45,10.99,4.05,14.17,4.05,15.9.87,7.81.29,8.96c-.58,1.16.29,1.45-1.45,3.18s-5.49,11.56-5.49,11.56l-5.2,9.54"/>
    <path class="cls-4" d="M546.91,625.34l5.2,4.63,4.63,10.12,4.63,1.16,5.78-11.85,2.02-8.38,6.36-6.65s4.92-.87,5.2-2.02.29-9.25.29-9.25h5.49l4.92-6.65-2.6-6.07,8.67-1.73,2.6-5.2,6.07-2.02,8.67,5.78s4.63-.87,6.07-.87,5.2.87,8.38,3.76,12.43,12.72,12.43,12.72c0,0-.29,2.02-3.76,2.31s-17.64,2.89-17.64,2.89l1.45,12.72,4.05.87-5.78,7.23h-10.99l-4.92,9.25-5.49,8.38,8.67,4.63,8.38,8.67-5.2,10.41,1.45,16.48-4.05-.58-7.52-10.99-3.18,8.96-10.41,3.76-8.38-.58"/>
    <path class="cls-4" d="M569.75,626.21l4.92,15.61,5.2,7.52s6.07-2.89,6.36-4.34c.29-1.45,4.63-9.54,6.36-9.54s6.07,1.45,6.07,1.45l-3.47,8.67,5.49,2.6"/>
    <path class="cls-4" d="M559.34,641.53v11.85s-10.12,10.41-10.99,11.56-5.2,12.14-5.2,12.14l-8.96,9.25"/>
    <path class="cls-4" d="M579.54,574.78l5.82-6.79s1.55,1.55,2.13,1.94,9.32,3.3,10.87,3.3h8.54l6.99,4.66,3.88,7.76"/>
    <path class="cls-4" d="M653.88,543.54l-10.87-3.49s-8.54,1.55-9.12,2.13c-.58.58-5.63-.19-5.63-.19l-2.33,10.09-5.43,15.53-4.08,12.81"/>
    <path class="cls-4" d="M558.19,445.14l4.66,14.17s.97,7.57.97,8.35.78,11.45.78,11.45l-4.85,8.15s-2.13,8.93-1.94,9.51,1.55,2.91,3.88,3.11,17.08-1.36,17.08-1.36l.19,9.51-2.72,15.53,8.35.58,10.87-.39,9.32,8.15,14.17,4.85,7.76,4.46"/>
    <path class="cls-4" d="M570.03,497.54l7.18-5.63-1.55-10.48,1.55-4.27h14.17l6.21-1.94-4.46-15.33-.78-7.96,5.63-7.76,7.96-6.6,3.3-8.35s12.81-4.46,13.59-4.46,11.65-2.72,11.65-2.72c0,0,3.3-8.54,3.3-9.7s1.94-14.17,1.94-14.17l-3.88-6.6-12.81-5.24-8.73-8.93-.97-9.32-8.15-8.93s-7.18-9.7-7.18-10.48.97-28.53.97-28.53"/>
    <path class="cls-4" d="M627.04,624.55l5.71-5.12,5.71,1.77.79,6.3-2.16,8.86-.79,9.84-4.72,1.97,2.76,4.13s-1.77,1.97-3.35,3.54c-1.57,1.57-7.28,8.07-7.28,8.07l-7.48-.98"/>
    <path class="cls-4" d="M642.2,621.21l3.74-7.28,12.79,6.69,6.1,5.71s-8.27,2.36-9.45,2.76-4.92,6.89-4.92,6.89l-.59,8.27s6.69-2.56,7.67-2.76,7.87-5.12,7.87-5.12c0,0,3.54,7.67,2.95,7.67s-4.13,11.41-4.13,11.41c0,0-4.72,5.51-4.72,6.3s5.9,9.84,6.69,10.43,11.22,9.05,11.22,9.05l-4.13,4.92-7.08,7.08v6.89c0,3.35,7.87,6.49,7.87,6.49,0,0,9.64-2.16,9.64-1.38s-1.38,16.33-1.38,16.33l-10.23,8.86-9.84,5.9-21.06-6.1-16.14,1.18"/>
    <polyline class="cls-4" points="601.07 715.67 611.89 714.88 618.97 713.5 617.2 697.76 614.84 689.69 610.51 687.92"/>
    <polyline class="cls-4" points="613.27 671 623.5 673.36 621.93 681.03 624.29 687.72 640.03 686.35 646.72 680.44 648.89 670.21 645.54 662.93 635.11 652.5"/>
    <path class="cls-4" d="M687.65,708.39l7.28,6.89,1.97,5.71,6.3,6.69,10.43.59,6.69,6.69-3.54,8.46-.2,8.07s4.92,4.13,5.51,4.13,16.53-4.53,16.53-4.53l6.1,8.86,5.9,15.94s17.12-.59,17.71-.98,16.53-2.36,16.53-2.36l11.37,2.7-5.66,14.61-10.04,12.4.98,11.22,1.52,7.02"/>
    <path class="cls-4" d="M901.77,779.43s-8.07-4.92-8.86-5.71c-.79-.79-12.59-17.12-12.59-17.12l-10.63-4.72-14.96,14.37-15.74,3.94-5.51-13.58-9.25-8.27s-4.72-.79-5.51-.59-2.95,17.32-3.94,17.71-9.64,6.49-9.64,6.49l-9.64,3.15"/>
    <path class="cls-4" d="M810.26,768.21l-8.07-7.28-14.96-11.02s2.36-3.15,2.76-3.94-2.36-5.9-2.36-5.9l-.61-7.95"/>
    <path class="cls-4" d="M857.49,718.42l5.71,11.02,10.63,10.04,8.46,8.07,15.35-4.72s8.07-.59,8.66-.59,10.82,14.76,10.82,14.76"/>
    <polyline class="cls-4" points="876.38 717.83 879.53 730.62 896.06 732.59 902.55 729.64 895.27 713.5"/>
    <polyline class="cls-4" points="938.37 630.65 941.13 642.66 953.33 656.24 967.69 674.74 971.83 684.97 968.87 725.31 970.84 754.44"/>
    <path class="cls-4" d="M1047.39,607.63l5.71,16.14-2.56,8.66s-19.09,14.17-20.47,14.56-33.46,15.74-33.46,15.74l-19.48,14.76-5.71,4.33"/>
    <polygon class="cls-4" points="12.67 1 90.12 24.83 97.07 24.83 214.24 97.31 315.52 117.17 319.49 102.28 388.99 111.21 435.66 168.8 433.67 186.68 443.6 217.46 453.53 227.39 461.48 229.37 481.34 246.25 499.21 235.33 498.21 220.44 510.13 211.5 529 207.53 544.88 221.43 551.83 213.49 578.64 247.25 585.59 267.1 588.57 292.92 604.46 304.84 611.41 329.66 624.32 363.42 632.26 377.32 656.09 388.24 672.97 397.18 690.84 396.18 699.78 391.22 689.85 412.07 673.96 422 664.03 488.53 654.1 537.18 656.09 550.09 656.09 562 669 583.85 663.04 595.76 722.62 706.97 756.38 714.91 768.29 735.77 787.16 731.79 813.97 726.83 832.83 727.82 862.62 714.91 874.53 714.91 883.47 722.86 894.39 712.93 913.26 697.04 934.11 664.27 938.08 627.54 955.95 613.64 990.71 609.66 1024.47 599.73 1061.2 609.66 1068.15 599.73 1084.04 607.68 1084.04 629.52 1059.22 657.32 1053.26 672.22 1043.33 681.15 1059.22 688.11 1040.35 737.75 1034.39 721.86 1014.54 731.79 997.66 748.67 971.84 752.65 915.24 756.62 901.34 778.46 928.15 809.24 929.14 832.08 880.49 828.11 855.67 853.92 860.63 869.81 853.68 886.69 783.18 820.16 764.32 819.17 745.45 809.24 692.83 835.06 670.98 828.11 653.11 818.18 624.32 810.24 600.49 789.38 561.76 778.46 543.89 762.57 471.41 716.9 443.6 708.96 408.85 681.15 370.13 649.38 344.31 596.76 348.28 580.87 346.3 568.95 366.16 552.07 350.27 537.18 355.23 525.27 363.18 517.32 347.29 499.45 338.35 481.58 314.52 434.91 302.61 425.97 294.66 404.13 284.74 408.1 277.79 381.29 250.98 353.49 233.1 337.6 246.01 316.75 244.03 307.81 229.13 294.91 226.15 283.98 204.31 273.06 202.32 258.17 207.29 243.27 194.38 237.32 174.52 225.4 156.65 185.68 145.73 136.04 144.73 92.35 130.83 84.41 123.88 70.5 109.98 74.48 86.15 55.61 77.21 58.59 77.21 108.24 91.12 157.88 118.92 187.67 110.97 196.61 124.87 208.52 127.85 225.4 129.84 247.25 138.78 255.19 147.71 274.05 146.72 289.94 157.64 279.02 164.59 290.93 161.61 321.72 170.55 336.61 187.43 357.46 177.5 375.33 180.48 390.23 184.45 403.14 196.37 393.21 219.2 446.82 188.42 460.72 184.45 435.9 180.48 421.01 150.69 390.23 127.85 364.41 124.87 334.62 133.81 306.82 118.92 290.93 107 275.05 85.16 270.08 55.37 232.35 42.46 221.43 65.3 218.45 85.16 235.33 78.21 216.46 84.16 191.64 69.27 164.83 39.48 137.03 37.5 119.16 33.52 103.27 35.51 87.38 25.58 74.48 21.61 51.64 25.58 32.77 27.57 22.84 12.67 1"/>
    <polyline class="cls-4" points="86.01 55.94 81.17 44.53 80.2 35.84 89.98 25.16"/>
    <polyline class="cls-4" points="579.38 687.35 579.51 665.5 588.59 663.63 591.65 657.5 595.8 657.5 599.63 663.94 600.86 674.83"/>
  </g>
</svg>