<?xml version="1.0" encoding="UTF-8"?>
<svg id="Capa_2" data-name="Capa 2" xmlns="http://www.w3.org/2000/svg" viewBox="0 0 1071.37 885.69">
  <defs>
    <style>
      .cls-1 {
        fill: #004b73;
      }
    </style>
  </defs>
  <g id="Capa_1-2" data-name="Capa 1">
    <polygon class="cls-1" points="0 0 77.45 23.83 84.4 23.83 201.56 96.31 302.84 116.17 306.81 101.28 376.32 110.21 422.99 167.8 421 185.68 430.93 216.46 440.86 226.39 448.8 228.37 468.66 245.25 486.53 234.33 485.54 219.44 497.46 210.5 516.32 206.53 532.21 220.43 539.16 212.49 565.97 246.25 572.92 266.1 575.9 291.92 591.78 303.84 598.73 328.66 611.64 362.42 619.59 376.32 643.42 387.24 660.3 396.18 678.17 395.18 687.11 390.22 677.18 411.07 661.29 421 651.36 487.53 641.43 536.18 643.42 549.09 643.42 561 656.32 582.85 650.37 594.76 709.94 705.97 743.7 713.91 755.62 734.77 774.48 730.79 801.29 725.83 820.16 726.82 849.95 713.91 861.86 713.91 870.8 721.86 881.72 711.93 900.58 696.04 921.44 663.27 925.41 626.54 943.28 612.64 978.03 608.66 1011.79 598.73 1048.53 608.66 1055.48 598.73 1071.37 606.68 1071.37 628.52 1046.54 656.32 1040.59 671.22 1030.66 680.15 1046.54 687.11 1027.68 736.75 1021.72 720.86 1001.86 730.79 984.98 747.67 959.17 751.65 902.57 755.62 888.67 777.46 915.48 808.24 916.47 831.08 867.82 827.11 842.99 852.92 847.96 868.81 841.01 885.69 770.51 819.16 751.65 818.17 732.78 808.24 680.15 834.06 658.31 827.11 640.44 817.18 611.64 809.24 587.81 788.38 549.09 777.46 531.22 761.57 458.73 715.9 430.93 707.96 396.18 680.15 357.45 648.38 331.64 595.76 335.61 579.87 333.62 567.95 353.48 551.07 337.59 536.18 342.56 524.27 350.5 516.32 334.62 498.45 325.68 480.58 301.85 433.91 289.93 424.97 281.99 403.13 272.06 407.1 265.11 380.29 238.3 352.49 220.43 336.6 233.34 315.75 231.35 306.81 216.46 293.91 213.48 282.98 191.63 272.06 189.65 257.17 194.61 242.27 181.71 236.32 161.85 224.4 143.97 184.68 133.05 135.04 132.06 91.35 118.16 83.41 111.21 69.5 97.31 73.48 73.48 54.61 64.54 57.59 64.54 107.24 78.44 156.88 106.24 186.67 98.3 195.61 112.2 207.52 115.18 224.4 117.17 246.25 126.1 254.19 135.04 273.05 134.04 288.94 144.97 278.02 151.92 289.93 148.94 320.72 157.88 335.61 174.76 356.46 164.83 374.33 167.8 389.23 171.78 402.14 183.69 392.21 206.53 445.82 175.75 459.72 171.78 434.9 167.8 420.01 138.02 389.23 115.18 363.41 112.2 333.62 121.14 305.82 106.24 289.93 94.33 274.05 72.48 269.08 42.7 231.35 29.79 220.43 52.63 217.45 72.48 234.33 65.53 215.46 71.49 190.64 56.6 163.83 26.81 136.03 24.82 118.16 20.85 102.27 22.84 86.38 12.91 73.48 8.94 50.64 12.91 31.77 14.89 21.84 0 0"/>
  </g>
</svg>