<?xml version="1.0" encoding="UTF-8"?>
<svg id="Capa_1" xmlns="http://www.w3.org/2000/svg" version="1.1" viewBox="0 0 241.85 112.4">
  <!-- Generator: Adobe Illustrator 30.1.0, SVG Export Plug-In . SVG Version: 2.1.1 Build 136)  -->
  <defs>
    <style>
      .st0 {
        fill: #fff;
      }
    </style>
  </defs>
  <path class="st0" d="M132.39,41.15c0,1.4-1.14,2.53-2.53,2.53s-2.53-1.13-2.53-2.53,1.14-2.53,2.53-2.53,2.53,1.13,2.53,2.53"/>
  <path class="st0" d="M109.28,11.34c-25.17,0-45.58,20.42-45.58,45.62,0,6.05,2.43,11.92,2.43,9,0-15.37,17.13-40.78,44-40.78,18.31,0,28.35,10.64,28.35,23.94,0,5.71-2.53,9.7-6.29,11.9-.52,6.89-4.95,17.64-3.25,19.87,2.07,2.73-2.03,4.41-3.54.3-1.46-3.97-3.41-16.48-7.04-19.43-4.42-2.12-6.45-6.64-6.45-11.16,0-7.98,5.61-11.82,9.75-14.48,0-3.55-2.96-6.21-12.7-6.21-11.81,0-25.1,5.32-25.1,25.12,0,20.87,27.71,23.79,37.1,46.04,19.52-5.15,33.92-22.94,33.92-44.1,0-25.2-20.41-45.62-45.58-45.62"/>
</svg>