<?xml version="1.0" encoding="UTF-8"?>
<svg id="Capa_1" xmlns="http://www.w3.org/2000/svg" version="1.1" viewBox="0 0 1133.86 1133.86">
  <!-- Generator: Adobe Illustrator 30.1.0, SVG Export Plug-In . SVG Version: 2.1.1 Build 136)  -->
  <defs>
    <style>
      .st0 {
        fill: #fff;
      }
    </style>
  </defs>
  <path class="st0" d="M708.59,840.46c96.7-96.7,133.05-233.48,103.53-360.82-7.19,84.71-43.65,165.94-105.4,227.69-39.95,39.95-88.07,69.33-140,87.06-.65.27-1.21.66-1.88.89-2.45.82-4.88,1.6-7.48,2.25-3,.84-6.88,1.99-10.76,3.14-1.12.31-1.99.52-3.02.79-.39.11-.78.2-1.17.31-1.92.51-3.95,1.06-5.75,1.51l-3.07.79c-4.72,1.1-8.62,1.92-12.51,2.75-1.64.39-3.08.71-4.5.95-.2.04-.41.09-.61.14-137.83,29.1-277.68,5.78-395.8-63.95,17.65,44.63,42.17,87.15,73.71,125.84,154.02,122.93,374.87,110.51,514.72-29.34Z"/>
  <path class="st0" d="M226.84,227.37c-113.85,113.85-158.34,271.1-133.71,418.95,55.97,45.37,119.81,77.28,187.55,94.36-70-167.05-34.01-361.95,97.43-493.39,96.22-96.22,225.32-140.69,351.94-131.63-169.72-61.32-367.36-24.14-503.21,111.71Z"/>
  <path class="st0" d="M423.87,293.05c-96.71,96.71-133.06,233.51-103.51,360.87,7.15-84.71,43.57-165.93,105.29-227.65,40.55-40.55,89.53-70.2,142.39-87.84l-.1-.3.1.3c.17-.06.34-.1.5-.15l-.1-.32c2.17-.7,4.36-1.38,6.66-1.97,2.47-.69,5.76-1.68,9.09-2.65l1.66-.5c3.37-.94,6.22-1.66,9.02-2.38l3.88-.99c5.44-1.26,9.81-2.19,14.2-3.09.55-.17,1.75-.43,3.23-.69.11-.02.2-.04.31-.06,137.78-29.1,277.57-5.81,395.68,63.86-18.14-45.64-43.18-88.21-74.56-126.49-153.98-122.12-374.18-109.51-513.74,30.05Z"/>
  <path class="st0" d="M754.35,886.21c-96.86,96.86-227.03,141.31-354.45,131.49,170.55,63.54,368.18,26,505.72-111.54,109.91-109.91,159.38-265.69,133.92-418.79-56.02-45.48-119.94-77.45-187.77-94.56,70,167.05,34.02,361.95-97.43,493.4Z"/>
  <path class="st0" d="M649.86,650.38c32.59-32.59,42.18-79.49,28.77-120.49-2.84,8.09-7.5,15.71-13.98,22.18-23.12,23.12-60.62,23.12-83.73,0-23.12-23.12-23.12-60.62,0-83.73,6.48-6.48,14.09-11.14,22.18-13.98-41-13.41-87.89-3.82-120.49,28.77-46.18,46.18-46.18,121.06,0,167.24,46.18,46.18,121.06,46.18,167.24,0Z"/>
</svg>